# xmcd
#
# Track frame offsets: 
#        150
#        12966
#        21750
#        31667
#        40908
#        52967
#        62260
#        70971
#        79758
#        90516
#
# Disc length: 1352 seconds
#
# Revision: 0
# Processed by: cddbd v1.5.2PL0 Copyright (c) Steve Scherf et al.
# Submitted via: ExactAudioCopy v1.3
#
DISCID=6b05460a
DTITLE=Alina Orlova - Daybreak
DYEAR=2018
DGENRE=Folk
TTITLE0=Kam?
TTITLE1=Elegantiškai Sninga
TTITLE2=The Break-Up Blues
TTITLE3=Little Bird's Song
TTITLE4=Tlen
TTITLE5=Bezdelnica
TTITLE6=Ja Genij
TTITLE7=Devica
TTITLE8=All The Wine
TTITLE9=Daybreak
EXTD=
EXTT0=
EXTT1=
EXTT2=
EXTT3=
EXTT4=
EXTT5=
EXTT6=
EXTT7=
EXTT8=
EXTT9=
PLAYORDER=
